<?xml version="1.0" encoding="UTF-8" standalone="no"?>
<!-- Created with Inkscape (http://www.inkscape.org/) -->

<svg
   xmlns:dc="http://purl.org/dc/elements/1.1/"
   xmlns:cc="http://creativecommons.org/ns#"
   xmlns:rdf="http://www.w3.org/1999/02/22-rdf-syntax-ns#"
   xmlns:svg="http://www.w3.org/2000/svg"
   xmlns="http://www.w3.org/2000/svg"
   xmlns:sodipodi="http://sodipodi.sourceforge.net/DTD/sodipodi-0.dtd"
   xmlns:inkscape="http://www.inkscape.org/namespaces/inkscape"
   width="187.1288"
   height="196.72881"
   id="svg2"
   version="1.1"
   inkscape:version="0.47 r22583"
   sodipodi:docname="test.svg"
   inkscape:export-filename="C:\Documents and Settings\Rsweeney\Desktop\test.png"
   inkscape:export-xdpi="176.30405"
   inkscape:export-ydpi="176.30405">
  <defs
     id="defs4">
    <inkscape:perspective
       sodipodi:type="inkscape:persp3d"
       inkscape:vp_x="0 : 526.18109 : 1"
       inkscape:vp_y="0 : 1000 : 0"
       inkscape:vp_z="744.09448 : 526.18109 : 1"
       inkscape:persp3d-origin="372.04724 : 350.78739 : 1"
       id="perspective10" />
    <inkscape:perspective
       id="perspective3600"
       inkscape:persp3d-origin="0.5 : 0.33333333 : 1"
       inkscape:vp_z="1 : 0.5 : 1"
       inkscape:vp_y="0 : 1000 : 0"
       inkscape:vp_x="0 : 0.5 : 1"
       sodipodi:type="inkscape:persp3d" />
    <inkscape:perspective
       id="perspective3622"
       inkscape:persp3d-origin="0.5 : 0.33333333 : 1"
       inkscape:vp_z="1 : 0.5 : 1"
       inkscape:vp_y="0 : 1000 : 0"
       inkscape:vp_x="0 : 0.5 : 1"
       sodipodi:type="inkscape:persp3d" />
    <inkscape:perspective
       id="perspective3644"
       inkscape:persp3d-origin="0.5 : 0.33333333 : 1"
       inkscape:vp_z="1 : 0.5 : 1"
       inkscape:vp_y="0 : 1000 : 0"
       inkscape:vp_x="0 : 0.5 : 1"
       sodipodi:type="inkscape:persp3d" />
    <inkscape:perspective
       id="perspective3666"
       inkscape:persp3d-origin="0.5 : 0.33333333 : 1"
       inkscape:vp_z="1 : 0.5 : 1"
       inkscape:vp_y="0 : 1000 : 0"
       inkscape:vp_x="0 : 0.5 : 1"
       sodipodi:type="inkscape:persp3d" />
    <inkscape:perspective
       id="perspective2836"
       inkscape:persp3d-origin="0.5 : 0.33333333 : 1"
       inkscape:vp_z="1 : 0.5 : 1"
       inkscape:vp_y="0 : 1000 : 0"
       inkscape:vp_x="0 : 0.5 : 1"
       sodipodi:type="inkscape:persp3d" />
    <inkscape:perspective
       id="perspective2858"
       inkscape:persp3d-origin="0.5 : 0.33333333 : 1"
       inkscape:vp_z="1 : 0.5 : 1"
       inkscape:vp_y="0 : 1000 : 0"
       inkscape:vp_x="0 : 0.5 : 1"
       sodipodi:type="inkscape:persp3d" />
    <inkscape:perspective
       id="perspective2880"
       inkscape:persp3d-origin="0.5 : 0.33333333 : 1"
       inkscape:vp_z="1 : 0.5 : 1"
       inkscape:vp_y="0 : 1000 : 0"
       inkscape:vp_x="0 : 0.5 : 1"
       sodipodi:type="inkscape:persp3d" />
    <inkscape:perspective
       id="perspective2902"
       inkscape:persp3d-origin="0.5 : 0.33333333 : 1"
       inkscape:vp_z="1 : 0.5 : 1"
       inkscape:vp_y="0 : 1000 : 0"
       inkscape:vp_x="0 : 0.5 : 1"
       sodipodi:type="inkscape:persp3d" />
    <inkscape:perspective
       id="perspective2924"
       inkscape:persp3d-origin="0.5 : 0.33333333 : 1"
       inkscape:vp_z="1 : 0.5 : 1"
       inkscape:vp_y="0 : 1000 : 0"
       inkscape:vp_x="0 : 0.5 : 1"
       sodipodi:type="inkscape:persp3d" />
    <inkscape:perspective
       id="perspective2946"
       inkscape:persp3d-origin="0.5 : 0.33333333 : 1"
       inkscape:vp_z="1 : 0.5 : 1"
       inkscape:vp_y="0 : 1000 : 0"
       inkscape:vp_x="0 : 0.5 : 1"
       sodipodi:type="inkscape:persp3d" />
    <inkscape:perspective
       id="perspective2968"
       inkscape:persp3d-origin="0.5 : 0.33333333 : 1"
       inkscape:vp_z="1 : 0.5 : 1"
       inkscape:vp_y="0 : 1000 : 0"
       inkscape:vp_x="0 : 0.5 : 1"
       sodipodi:type="inkscape:persp3d" />
    <inkscape:perspective
       id="perspective2990"
       inkscape:persp3d-origin="0.5 : 0.33333333 : 1"
       inkscape:vp_z="1 : 0.5 : 1"
       inkscape:vp_y="0 : 1000 : 0"
       inkscape:vp_x="0 : 0.5 : 1"
       sodipodi:type="inkscape:persp3d" />
    <inkscape:perspective
       id="perspective3012"
       inkscape:persp3d-origin="0.5 : 0.33333333 : 1"
       inkscape:vp_z="1 : 0.5 : 1"
       inkscape:vp_y="0 : 1000 : 0"
       inkscape:vp_x="0 : 0.5 : 1"
       sodipodi:type="inkscape:persp3d" />
    <inkscape:perspective
       id="perspective3816"
       inkscape:persp3d-origin="0.5 : 0.33333333 : 1"
       inkscape:vp_z="1 : 0.5 : 1"
       inkscape:vp_y="0 : 1000 : 0"
       inkscape:vp_x="0 : 0.5 : 1"
       sodipodi:type="inkscape:persp3d" />
    <inkscape:perspective
       id="perspective3838"
       inkscape:persp3d-origin="0.5 : 0.33333333 : 1"
       inkscape:vp_z="1 : 0.5 : 1"
       inkscape:vp_y="0 : 1000 : 0"
       inkscape:vp_x="0 : 0.5 : 1"
       sodipodi:type="inkscape:persp3d" />
    <inkscape:perspective
       id="perspective3860"
       inkscape:persp3d-origin="0.5 : 0.33333333 : 1"
       inkscape:vp_z="1 : 0.5 : 1"
       inkscape:vp_y="0 : 1000 : 0"
       inkscape:vp_x="0 : 0.5 : 1"
       sodipodi:type="inkscape:persp3d" />
    <inkscape:perspective
       id="perspective3882"
       inkscape:persp3d-origin="0.5 : 0.33333333 : 1"
       inkscape:vp_z="1 : 0.5 : 1"
       inkscape:vp_y="0 : 1000 : 0"
       inkscape:vp_x="0 : 0.5 : 1"
       sodipodi:type="inkscape:persp3d" />
    <inkscape:perspective
       id="perspective3904"
       inkscape:persp3d-origin="0.5 : 0.33333333 : 1"
       inkscape:vp_z="1 : 0.5 : 1"
       inkscape:vp_y="0 : 1000 : 0"
       inkscape:vp_x="0 : 0.5 : 1"
       sodipodi:type="inkscape:persp3d" />
    <inkscape:perspective
       id="perspective3926"
       inkscape:persp3d-origin="0.5 : 0.33333333 : 1"
       inkscape:vp_z="1 : 0.5 : 1"
       inkscape:vp_y="0 : 1000 : 0"
       inkscape:vp_x="0 : 0.5 : 1"
       sodipodi:type="inkscape:persp3d" />
    <inkscape:perspective
       id="perspective3948"
       inkscape:persp3d-origin="0.5 : 0.33333333 : 1"
       inkscape:vp_z="1 : 0.5 : 1"
       inkscape:vp_y="0 : 1000 : 0"
       inkscape:vp_x="0 : 0.5 : 1"
       sodipodi:type="inkscape:persp3d" />
    <inkscape:perspective
       id="perspective3634"
       inkscape:persp3d-origin="0.5 : 0.33333333 : 1"
       inkscape:vp_z="1 : 0.5 : 1"
       inkscape:vp_y="0 : 1000 : 0"
       inkscape:vp_x="0 : 0.5 : 1"
       sodipodi:type="inkscape:persp3d" />
    <inkscape:perspective
       id="perspective3656"
       inkscape:persp3d-origin="0.5 : 0.33333333 : 1"
       inkscape:vp_z="1 : 0.5 : 1"
       inkscape:vp_y="0 : 1000 : 0"
       inkscape:vp_x="0 : 0.5 : 1"
       sodipodi:type="inkscape:persp3d" />
    <inkscape:perspective
       id="perspective3678"
       inkscape:persp3d-origin="0.5 : 0.33333333 : 1"
       inkscape:vp_z="1 : 0.5 : 1"
       inkscape:vp_y="0 : 1000 : 0"
       inkscape:vp_x="0 : 0.5 : 1"
       sodipodi:type="inkscape:persp3d" />
    <inkscape:perspective
       id="perspective3700"
       inkscape:persp3d-origin="0.5 : 0.33333333 : 1"
       inkscape:vp_z="1 : 0.5 : 1"
       inkscape:vp_y="0 : 1000 : 0"
       inkscape:vp_x="0 : 0.5 : 1"
       sodipodi:type="inkscape:persp3d" />
  </defs>
  <sodipodi:namedview
     id="base"
     pagecolor="#ffffff"
     bordercolor="#666666"
     borderopacity="1.0"
     inkscape:pageopacity="0.0"
     inkscape:pageshadow="2"
     inkscape:zoom="3.9"
     inkscape:cx="77.182612"
     inkscape:cy="60.164618"
     inkscape:document-units="px"
     inkscape:current-layer="layer1"
     showgrid="false"
     inkscape:window-width="1024"
     inkscape:window-height="721"
     inkscape:window-x="-4"
     inkscape:window-y="-4"
     inkscape:window-maximized="1" />
  <metadata
     id="metadata7">
    <rdf:RDF>
      <cc:Work
         rdf:about="">
        <dc:format>image/svg+xml</dc:format>
        <dc:type
           rdf:resource="http://purl.org/dc/dcmitype/StillImage" />
        <dc:title></dc:title>
      </cc:Work>
    </rdf:RDF>
  </metadata>
  <g
     inkscape:label="Layer 1"
     inkscape:groupmode="layer"
     id="layer1"
     transform="translate(-314.91335,-592.52003)">
    <path
       style="fill:none;stroke:#000000;stroke-width:0.1;stroke-linecap:butt;stroke-linejoin:miter;stroke-miterlimit:4;stroke-opacity:1;stroke-dasharray:none"
       d="m 408.51525,617.42193 c -3.15989,7.85297 -9.65724,14.31712 -18.3375,17.1375 -8.67551,2.81885 -17.69368,1.41026 -24.8625,-3.075 2.05033,8.20392 0.59681,17.22354 -4.7625,24.6 -5.36122,7.37908 -13.50325,11.53138 -21.9375,12.1125 6.48841,5.43194 10.65,13.60108 10.65,22.725 0,9.12124 -4.16384,17.22528 -10.65,22.65 8.45046,0.5746 16.56961,4.76173 21.9375,12.15 5.35999,7.3774 6.80501,16.39558 4.7625,24.6 7.16932,-4.4867 16.18967,-5.89297 24.8625,-3.075 8.66854,2.81658 15.1729,9.26143 18.3375,17.1 3.16888,-7.84031 9.63161,-14.28347 18.3,-17.1 8.67283,-2.81797 17.69318,-1.4117 24.8625,3.075 -2.04746,-8.2087 -0.59935,-17.22004 4.7625,-24.6 5.35156,-7.36578 13.43963,-11.5178 21.8625,-12.1125 -6.47311,-5.4255 -10.575,-13.58136 -10.575,-22.6875 0,-9.11381 4.13651,-17.29303 10.6125,-22.725 -8.42347,-0.58477 -16.54388,-4.74044 -21.9,-12.1125 -5.35745,-7.37389 -6.84718,-16.39836 -4.8,-24.6 -7.15928,4.4707 -16.16416,5.88908 -24.825,3.075 -8.68032,-2.82041 -15.13591,-9.28255 -18.3,-17.1375 z"
       id="path2816" />
    <path
       style="fill:none;stroke:#000000;stroke-width:0.1;stroke-linecap:butt;stroke-linejoin:miter;stroke-miterlimit:4;stroke-opacity:1;stroke-dasharray:none"
       d="m 408.50275,641.90943 c -2.10659,5.23531 -6.43816,9.54474 -12.225,11.425 -5.78367,1.87923 -11.79578,0.94018 -16.575,-2.05 1.36689,5.46928 0.39787,11.48236 -3.175,16.4 -3.57414,4.91938 -9.00217,7.68758 -14.625,8.075 4.32561,3.6213 7.1,9.06738 7.1,15.15 0,6.08082 -2.7759,11.48352 -7.1,15.1 5.63364,0.38306 11.04641,3.17449 14.625,8.1 3.57333,4.91826 4.53667,10.93038 3.175,16.4 4.77954,-2.99114 10.79311,-3.92865 16.575,-2.05 5.77902,1.87772 10.11526,6.17429 12.225,11.4 2.11258,-5.22687 6.42107,-9.52231 12.2,-11.4 5.78189,-1.87865 11.79546,-0.94114 16.575,2.05 -1.36498,-5.47246 -0.39957,-11.48002 3.175,-16.4 3.5677,-4.91052 8.95975,-7.67854 14.575,-8.075 -4.31541,-3.617 -7.05,-9.05424 -7.05,-15.125 0,-6.07587 2.75767,-11.52869 7.075,-15.15 -5.61565,-0.38985 -11.02926,-3.1603 -14.6,-8.075 -3.57163,-4.91593 -4.56478,-10.93224 -3.2,-16.4 -4.77286,2.98046 -10.7761,3.92606 -16.55,2.05 -5.78688,-1.88027 -10.09061,-6.18837 -12.2,-11.425 z"
       id="path2816-5" />
    <path
       style="fill:none;stroke:#000000;stroke-width:0.1;stroke-linecap:butt;stroke-linejoin:miter;stroke-miterlimit:4;stroke-opacity:1;stroke-dasharray:none"
       d="m 408.4965,654.15318 c -1.57994,3.92648 -4.82862,7.15856 -9.16875,8.56875 -4.33775,1.40942 -8.84684,0.70513 -12.43125,-1.5375 1.02517,4.10196 0.2984,8.61177 -2.38125,12.3 -2.68061,3.68954 -6.75163,5.76569 -10.96875,6.05625 3.24421,2.71597 5.325,6.80054 5.325,11.3625 0,4.56062 -2.08192,8.61264 -5.325,11.325 4.22523,0.2873 8.28481,2.38087 10.96875,6.075 2.68,3.6887 3.4025,8.19779 2.38125,12.3 3.58466,-2.24335 8.09483,-2.94649 12.43125,-1.5375 4.33427,1.40829 7.58645,4.63072 9.16875,8.55 1.58444,-3.92015 4.8158,-7.14173 9.15,-8.55 4.33642,-1.40899 8.84659,-0.70585 12.43125,1.5375 -1.02373,-4.10435 -0.29968,-8.61002 2.38125,-12.3 2.67578,-3.68289 6.71981,-5.7589 10.93125,-6.05625 -3.23656,-2.71275 -5.2875,-6.79068 -5.2875,-11.34375 0,-4.5569 2.06825,-8.64652 5.30625,-11.3625 -4.21174,-0.29239 -8.27194,-2.37022 -10.95,-6.05625 -2.67872,-3.68695 -3.42359,-8.19918 -2.4,-12.3 -3.57964,2.23535 -8.08208,2.94454 -12.4125,1.5375 -4.34016,-1.4102 -7.56796,-4.64128 -9.15,-8.56875 z"
       id="path2816-1" />
    <path
       style="fill:none;stroke:#000000;stroke-width:0.1;stroke-linecap:butt;stroke-linejoin:miter;stroke-miterlimit:4;stroke-opacity:1;stroke-dasharray:none"
       d="m 408.49025,666.39693 c -1.0533,2.61766 -3.21908,4.77237 -6.1125,5.7125 -2.89184,0.93962 -5.89789,0.47009 -8.2875,-1.025 0.68344,2.73464 0.19894,5.74118 -1.5875,8.2 -1.78707,2.45969 -4.50108,3.84379 -7.3125,4.0375 2.1628,1.81065 3.55,4.53369 3.55,7.575 0,3.04041 -1.38795,5.74176 -3.55,7.55 2.81682,0.19153 5.5232,1.58724 7.3125,4.05 1.78666,2.45913 2.26834,5.46519 1.5875,8.2 2.38977,-1.49557 5.39656,-1.96432 8.2875,-1.025 2.88951,0.93886 5.05763,3.08714 6.1125,5.7 1.05629,-2.61344 3.21054,-4.76116 6.1,-5.7 2.89094,-0.93932 5.89773,-0.47057 8.2875,1.025 -0.68249,-2.73623 -0.19978,-5.74001 1.5875,-8.2 1.78385,-2.45526 4.47988,-3.83927 7.2875,-4.0375 -2.1577,-1.8085 -3.525,-4.52712 -3.525,-7.5625 0,-3.03794 1.37884,-5.76434 3.5375,-7.575 -2.80782,-0.19492 -5.51463,-1.58015 -7.3,-4.0375 -1.78582,-2.45796 -2.28239,-5.46612 -1.6,-8.2 -2.38643,1.49023 -5.38805,1.96303 -8.275,1.025 -2.89344,-0.94014 -5.0453,-3.09418 -6.1,-5.7125 z"
       id="path2816-7" />
    <path
       style="fill:none;stroke:#000000;stroke-width:0.1;stroke-linecap:butt;stroke-linejoin:miter;stroke-miterlimit:4;stroke-opacity:1;stroke-dasharray:none"
       d="m 408.484,678.64068 c -0.52665,1.30883 -1.60954,2.38619 -3.05625,2.85625 -1.44592,0.46981 -2.94895,0.23504 -4.14375,-0.5125 0.34172,1.36732 0.0995,2.87059 -0.79375,4.1 -0.89354,1.22985 -2.25054,1.9219 -3.65625,2.01875 1.0814,0.90532 1.775,2.26685 1.775,3.7875 0,1.52021 -0.69397,2.87088 -1.775,3.775 1.40841,0.0958 2.7616,0.79362 3.65625,2.025 0.89333,1.22957 1.13417,2.7326 0.79375,4.1 1.19489,-0.74778 2.69828,-0.98216 4.14375,-0.5125 1.44476,0.46943 2.52882,1.54357 3.05625,2.85 0.52815,-1.30672 1.60527,-2.38058 3.05,-2.85 1.44547,-0.46966 2.94886,-0.23528 4.14375,0.5125 -0.34124,-1.36812 -0.0999,-2.87001 0.79375,-4.1 0.89193,-1.22763 2.23994,-1.91963 3.64375,-2.01875 -1.07885,-0.90425 -1.7625,-2.26356 -1.7625,-3.78125 0,-1.51897 0.68942,-2.88217 1.76875,-3.7875 -1.40391,-0.0975 -2.75731,-0.79007 -3.65,-2.01875 -0.89291,-1.22898 -1.1412,-2.73306 -0.8,-4.1 -1.19321,0.74512 -2.69403,0.98151 -4.1375,0.5125 -1.44672,-0.47007 -2.52265,-1.54709 -3.05,-2.85625 z"
       id="path2816-11" />
    <path
       style="fill:none;stroke:#000000;stroke-width:0.1;stroke-linecap:butt;stroke-linejoin:miter;stroke-miterlimit:4;stroke-opacity:1;stroke-dasharray:none"
       d="m 408.509,629.98985 c -2.63324,6.54414 -8.0477,11.93093 -15.28125,14.28125 -7.22959,2.34904 -14.74473,1.17522 -20.71875,-2.5625 1.70861,6.8366 0.49734,14.35295 -3.96875,20.5 -4.46768,6.14923 -11.25271,9.60948 -18.28125,10.09375 5.40701,4.52662 8.875,11.33423 8.875,18.9375 0,7.60103 -3.46987,14.3544 -8.875,18.875 7.04205,0.47883 13.80801,3.96811 18.28125,10.125 4.46666,6.14783 5.67084,13.66298 3.96875,20.5 5.97443,-3.73892 13.49139,-4.91081 20.71875,-2.5625 7.22378,2.34715 12.64408,7.71786 15.28125,14.25 2.64073,-6.53359 8.02634,-11.90289 15.25,-14.25 7.22736,-2.34831 14.74432,-1.17642 20.71875,2.5625 -1.70622,-6.84058 -0.49946,-14.35003 3.96875,-20.5 4.45963,-6.13815 11.19969,-9.59817 18.21875,-10.09375 -5.39426,-4.52125 -8.8125,-11.3178 -8.8125,-18.90625 0,-7.59484 3.44709,-14.41086 8.84375,-18.9375 -7.01956,-0.48731 -13.78657,-3.95037 -18.25,-10.09375 -4.46454,-6.14491 -5.70598,-13.6653 -4,-20.5 -5.96607,3.72558 -13.47013,4.90757 -20.6875,2.5625 -7.2336,-2.35034 -12.61326,-7.73546 -15.25,-14.28125 z"
       id="path2816-52" />
    <path
       style="fill:none;stroke:#000000;stroke-width:0.1;stroke-linecap:butt;stroke-linejoin:miter;stroke-miterlimit:4;stroke-opacity:1;stroke-dasharray:none"
       d="m 408.5215,605.17818 c -3.68654,9.1618 -11.26678,16.7033 -21.39375,19.99375 -10.12143,3.28866 -20.64262,1.64531 -29.00625,-3.5875 2.39205,9.57124 0.69628,20.09413 -5.55625,28.7 -6.25475,8.60892 -15.75379,13.45327 -25.59375,14.13125 7.56981,6.33727 12.425,15.86792 12.425,26.5125 0,10.64144 -4.85782,20.09616 -12.425,26.425 9.85887,0.67036 19.33121,5.55535 25.59375,14.175 6.25332,8.60696 7.93918,19.12817 5.55625,28.7 8.3642,-5.23449 18.88795,-6.87513 29.00625,-3.5875 10.11329,3.28601 17.70171,10.805 21.39375,19.95 3.69702,-9.14703 11.23688,-16.66405 21.35,-19.95 10.1183,-3.28763 20.64205,-1.64699 29.00625,3.5875 -2.38871,-9.57681 -0.69924,-20.09004 5.55625,-28.7 6.24348,-8.59341 15.67957,-13.43744 25.50625,-14.13125 -7.55196,-6.32975 -12.3375,-15.84492 -12.3375,-26.46875 0,-10.63278 4.82593,-20.1752 12.38125,-26.5125 -9.82738,-0.68223 -19.3012,-5.53052 -25.55,-14.13125 -6.25036,-8.60287 -7.98837,-19.13142 -5.6,-28.7 -8.3525,5.21581 -18.85818,6.8706 -28.9625,3.5875 -10.12704,-3.29048 -17.65856,-10.82964 -21.35,-19.99375 z"
       id="path2816-52-7"
       inkscape:export-xdpi="235.05066"
       inkscape:export-ydpi="235.05066" />
    <path
       style="fill:none;stroke:#000000;stroke-width:0.1;stroke-linecap:butt;stroke-linejoin:miter;stroke-miterlimit:4;stroke-opacity:1;stroke-dasharray:none"
       d="m 408.52775,592.93443 c -4.21318,10.47062 -12.87632,19.08949 -24.45,22.85 -11.56734,3.75846 -23.59157,1.88035 -33.15,-4.1 2.73378,10.93856 0.79574,22.96472 -6.35,32.8 -7.14829,9.83877 -18.00434,15.37517 -29.25,16.15 8.65122,7.24259 14.2,18.13477 14.2,30.3 0,12.16165 -5.55179,22.96704 -14.2,30.2 11.26728,0.76613 22.09282,6.34898 29.25,16.2 7.14666,9.83653 9.07334,21.86077 6.35,32.8 9.55909,-5.98227 21.58622,-7.8573 33.15,-4.1 11.55805,3.75544 20.23053,12.34858 24.45,22.8 4.22517,-10.45374 12.84214,-19.04462 24.4,-22.8 11.56378,-3.7573 23.59091,-1.88227 33.15,4.1 -2.72995,-10.94493 -0.79914,-22.96005 6.35,-32.8 7.13541,-9.82104 17.9195,-15.35707 29.15,-16.15 -8.63082,-7.234 -14.1,-18.10848 -14.1,-30.25 0,-12.15174 5.51534,-23.05738 14.15,-30.3 -11.2313,-0.7797 -22.05851,-6.32059 -29.2,-16.15 -7.14326,-9.83186 -9.12957,-21.86448 -6.4,-32.8 -9.54571,5.96093 -21.55221,7.85211 -33.1,4.1 -11.57376,-3.76054 -20.18122,-12.37674 -24.4,-22.85 z"
       id="path2816-52-6" />
    <path
       style="fill:none;stroke:#000000;stroke-width:0.2;stroke-linecap:butt;stroke-linejoin:miter;stroke-miterlimit:4;stroke-opacity:1;stroke-dasharray:none"
       d="m 408.51335,789.14856 0,-196.59933"
       id="path3622" />
    <path
       id="path3624"
       d="m 408.51335,789.14856 0,-196.59933"
       style="fill:none;stroke:#000000;stroke-width:0.2;stroke-linecap:butt;stroke-linejoin:miter;stroke-miterlimit:4;stroke-opacity:1;stroke-dasharray:none" />
    <path
       id="path3624-1"
       d="M 479.99468,789.23478 337.03202,592.46357"
       style="fill:none;stroke:#000000;stroke-width:0.24742977;stroke-linecap:butt;stroke-linejoin:miter;stroke-miterlimit:4;stroke-opacity:1;stroke-dasharray:none" />
    <path
       id="path3624-7"
       d="M 502.00188,721.22544 315.02482,660.47291"
       style="fill:none;stroke:#000000;stroke-width:0.2;stroke-linecap:butt;stroke-linejoin:miter;stroke-miterlimit:4;stroke-opacity:1;stroke-dasharray:none" />
    <path
       id="path3624-4"
       d="M 502.00188,660.47291 315.02482,721.22544"
       style="fill:none;stroke:#000000;stroke-width:0.2;stroke-linecap:butt;stroke-linejoin:miter;stroke-miterlimit:4;stroke-opacity:1;stroke-dasharray:none" />
    <path
       id="path3624-0"
       d="M 479.99468,592.46357 337.03202,789.23478"
       style="fill:none;stroke:#000000;stroke-width:0.24742977;stroke-linecap:butt;stroke-linejoin:miter;stroke-miterlimit:4;stroke-opacity:1;stroke-dasharray:none" />
  </g>
</svg>
